<?xml version="1.0" encoding="utf-8"?>
<!-- Generator: Adobe Illustrator 22.0.0, SVG Export Plug-In . SVG Version: 6.00 Build 0)  -->
<svg version="1.1" xmlns="http://www.w3.org/2000/svg" xmlns:xlink="http://www.w3.org/1999/xlink" x="0px" y="0px"
	 viewBox="0 0 370 396.7" style="enable-background:new 0 0 370 396.7;" xml:space="preserve">
<style type="text/css">
	.st0{display:none;fill:#48B764;}
	.st1{display:none;}
	.st2{display:inline;fill:#016937;}
	.st3{fill:#427A5B;}
	.st4{fill:#016937;}
	.st5{fill:#FFFFFF;}
	.st6{display:inline;}
	.st7{display:none;fill:#FFFFFF;}
</style>
<g id="Слой_8">
</g>
<g id="Слой_6">
	<path class="st0" d="M423.3,324.7c-171.1,0-389.4,0-544,0c0,117.8,121.8,213.3,272,213.3S423.3,442.5,423.3,324.7z"/>
	<g id="Слой_10">
	</g>
	<g id="Слой_7">
		<g class="st1">
			<path class="st2" d="M180.6,178.5c0,0,0.2-149.2,0-150.7c-0.4-4-1.5-6.2-1.6-8c-0.2-2.8,4.7-12.9,7.7-13.6
				c3.1,0.3,7.1,10.6,7.1,13.3c-0.9,3.2-1.8,8-1.8,8l1.5,150.7c0,0,10.6,1.5,12.1,8.8c0.8,7-6.5,7-4.9,16c-0.4,9.7,4.9,10,5.3,20.7
				c0.8,8.3,2.7,118.3,2.3,131.3c0,22.3-40.6,22-42.5,3c-0.4-9.2,0-124.3,0.4-134.3s3-11.7,6.5-19.7c2.7-11-5.7-10.3-4.6-17.7
				C169.1,179.4,180.6,178.5,180.6,178.5z"/>
		</g>
		<g>
			<path class="st3" d="M180.6,178.5c0,0,0.2-149.2,0-150.7c-0.4-4-1.5-6.2-1.6-8c-0.2-2.8,4.7-12.9,7.7-13.6
				c3.1,0.3,7.1,10.6,7.1,13.3c-0.9,3.2-1.8,8-1.8,8l1.5,150.7c0,0,10.6,1.5,12.1,8.8c0.8,7-6.5,7-4.9,16c-0.4,9.7,4.9,10,5.3,20.7
				c0.4,4,1,31,1.5,59.6c-1.3-3.1-33.2-7.3-41.8,0.7c0.1-28.7,0.3-55.7,0.5-60.3c0.4-10,3-11.7,6.5-19.7c2.7-11-5.7-10.3-4.6-17.7
				C169.1,179.4,180.6,178.5,180.6,178.5z"/>
		</g>
		<g class="st1">
			<path class="st2" d="M192,244.1c1.4,42.8-8,65.7-8,65.7"/>
		</g>
		<g id="Слой_11">
		</g>
		<g>
			<path class="st4" d="M177,176.4c10-2.7,20.7,0.1,20.7,0.1"/>
			<g>
				<path class="st5" d="M177,179c6.7-1.6,14-1.6,20.7,0.1c0.5,0.1,1.1-5,0-5.3c-6.7-1.7-14-1.7-20.7-0.1
					C175.9,174,176.5,179.1,177,179L177,179z"/>
			</g>
		</g>
	</g>
	<g>
		<g class="st1">
			<path class="st2" d="M155.6,371.3c-30.6-20.5-54.7-116.7-65.4-141.4c-5.3-12.3-32.1,0.1-58.7-23.4
				c-12.4-10.9-21.6-31.9-22.8-50.2c-1.3-19.3,2.8-28.5,6.2-37.2c0.9-2.2,3.9-2.4,5.1-0.3c0,0,25.5,43.2,26,43.4
				c3.3,5.1,13.9,22.8,44.6-6.4c17.1-16.3-18-36.1-32.4-63.5c-1.2-2.2-0.4-4.7,2.1-4.7c17.3,0.2,56.4,3.8,76.3,52.8
				c9.6,24.6,4.9,37.3-11.7,64.4c-5.1,19.7,69.1,119.7,59.8,160.7C181.9,377.4,172,382.2,155.6,371.3z"/>
		</g>
		<g>
			<path class="st3" d="M116.3,304.5c-12.2-30.2-20.6-62-26.1-74.7c-5.3-12.3-32.1,0.1-58.7-23.4c-12.4-10.9-21.6-31.9-22.8-50.2
				c-1.3-19.3,2.8-28.5,6.2-37.2c0.9-2.2,3.9-2.4,5.1-0.3c0,0,25.5,43.2,26,43.4c3.3,5.1,13.9,22.8,44.6-6.4
				c17.1-16.3-18-36.1-32.4-63.5c-1.2-2.2-0.4-4.7,2.1-4.7c17.3,0.2,56.4,3.8,76.3,52.8c9.6,24.6-4.1,44.7-11.6,65.9
				c-2.8,7.9,18.5,38.8,34,74.3C160.5,284.4,117.3,307,116.3,304.5z"/>
		</g>
		<g>
			<path class="st3" d="M64.8,200.3c18.2,4,38.5-9.8,47.9-28"/>
			<g>
				<path class="st5" d="M61.8,202.8c22.7,4.4,44.5-11.9,54.8-31.1c1.8-3.3-6.5-1.4-7.8,1c-7.7,14.5-23.5,28.4-41,25
					c-1.9-0.4-4.3,0.3-5.8,1.7C61.2,200.2,59.7,202.4,61.8,202.8L61.8,202.8z"/>
			</g>
		</g>
	</g>
	<g id="Слой_9">
		<g>
			<path class="st3" d="M265.7,211.6c-28.4-10.9-42.4-29.5-37.1-47.7c7.2-25,97.9-116.8,120.7-98.2s6.4,117.5-5.6,147.9
				C329.9,248.7,265.7,211.6,265.7,211.6"/>
		</g>
		<g>
			<path class="st3" d="M249.2,239.9c0,0,21.5-34,28.2-50.5c7.4-18.3,7.5-29,23.5-18.6c10.7,7-9.8,46.8-15,60
				c-4.8,12.3-12.6,28.8-12.6,28.8L249.2,239.9z"/>
			<g>
				<path class="st5" d="M249.5,244.1c7.2-11.4,14.1-23,20.6-34.8c4.1-7.5,7.6-15.1,10.6-23.1c2.1-5.6,4.3-16.6,12.4-14.9
					c3.1,0.6,7.5,2.5,9.3,5.2c1.6,2.4,0.3,5.6-0.3,8.2c-2,8.3-5.4,16.3-8.7,24.2c-6.6,15.3-13.8,30.5-20,46c-0.6,1.4,0.3,0.4,0,0.3
					c-0.7-0.5-1.4-1.1-2-1.7c-2.7-2.2-5.5-4.5-8.2-6.7c-4.5-3.7-9.1-7.4-13.6-11.1c-0.5-0.4-2.2,7.1-0.5,8.4
					c8,6.6,16.1,13.1,24.1,19.7c0.4,0.3,0.6-0.1,0.7-0.4c5.9-12.5,11-25.3,16.5-38c5.8-13.1,12.4-26.8,14.3-41.1
					c0.6-4.8,1.2-11.4-1.5-15.7c-2.4-3.9-10.3-7.8-14.7-5.7c-5.2,2.4-7,10.9-8.8,15.7c-2.8,7.7-6.2,15-10.1,22.2
					c-6.4,11.9-13.3,23.4-20.6,34.8c-0.9,1.4-0.8,3.8-0.7,5.4C248.3,241.4,248.9,245,249.5,244.1z"/>
			</g>
		</g>
		<g class="st1">
			<path class="st2" d="M240.4,240.5c20-7.9,32.3,1.2,39.2,14c7,12.8-16.6,77.6-16.6,77.6s-31,38-53.1,28.7
				C181.9,343.1,215.3,255.2,240.4,240.5z"/>
			<g class="st6">
				<path class="st5" d="M240.4,244.9c14.7-5.5,28.8-2.4,37.4,11.2c4.5,7,0.9,16.9-0.8,24.4c-2.5,10.8-5.7,21.4-9.1,31.9
					c-1.5,4.6-3.2,12.1-5.3,15.6c-2.8,4.8-10.2,10.9-14.9,14.9c-8.3,7.1-19,15-30.5,14.9c-23.9-0.2-16.7-36.1-13-49.8
					c3.6-13.4,8.9-26.5,15.7-38.6C225.1,260.6,231.4,250.3,240.4,244.9c2.1-1.3,0-8.7,0-8.8c-8.7,5.3-14.8,14.5-19.8,23.1
					c-6.9,11.8-12.2,24.5-16.2,37.6c-3.7,12.4-6.3,25.4-6.1,38.4c0.1,9.5,1.4,21.1,8.8,27.9c9.1,8.3,23.7,0.9,32.1-4.7
					c8.4-5.6,17.3-13,23.4-21.3c2.9-3.9,3.9-9.7,5.4-14.3c3.9-11.7,7.5-23.6,10.3-35.7c2.4-10.5,6-24.2,2.5-34.8
					c-2-6.2-7.4-12-12.8-15.4c-8.6-5.3-18.5-4.3-27.6-0.9C238.4,236.9,239.9,245.1,240.4,244.9z"/>
			</g>
		</g>
		<g>
			<path class="st3" d="M240.4,240.5c17.6-10.5,32-3.3,39,9.5c2.9,5.3,3.1,25.3-0.6,40.1c-7.4-1-20.5-1.7-71.2-6.9
				C215.7,263.6,226,250,240.4,240.5z"/>
			<g>
				<path class="st5" d="M240.4,244.9c12.1-6.9,26.2-7,35.5,4.4c8,9.9,4.9,26.3,2.2,37.7c0.2-0.4,0.5-0.9,0.7-1.3
					c-23.6-3.2-47.5-4.4-71.2-6.9c0.2,2.7,0.3,5.4,0.5,8.2c7.2-16.9,17.3-31.9,32.6-42.3c1.6-1.1,0.3-9-0.5-8.4
					c-15.7,10.6-25.8,26-33.1,43.2c-0.4,1-1.2,8,0.5,8.2c23.7,2.4,47.6,3.7,71.2,6.9c0.4,0.1,0.7-1.2,0.7-1.3c2-8.5,2.9-17.3,3.1-26
					c0.1-6.4,0.2-14-2.2-20.1c-2.5-6.1-8-11.4-14-14.1c-8.7-3.8-17.9-1.4-25.8,3.1C238.3,237.3,240.3,244.9,240.4,244.9z"/>
			</g>
		</g>
		<g>
			<path class="st3" d="M342,113.6c3,33.8-9,53.9-9,53.9"/>
			<g>
				<path class="st5" d="M340.9,115c1.2,15.4-0.1,33.7-8.2,47.4c-1.1,1.8-0.9,4.4-0.8,6.5c0,0.4,0.8,4.7,1.4,3.7
					c10.3-17.4,11.4-40.9,9.8-60.3c-0.1-0.9-0.1-4-1.4-3.7C340.6,108.9,340.9,114.3,340.9,115L340.9,115z"/>
			</g>
		</g>
	</g>
</g>
<g id="Слой_12">
</g>
<g id="Слой_2">
	<g>
		<g>
			<path class="st3" d="M68,385.9c3.8-13.6,7.2-27.4,12.1-40.7c1.8-4.8,3.7-9.7,6.6-14c3.1-4.5,7.9-7.2,12.3-10.3
				c11.8-8.3,23.9-16.4,36.6-23.3c6.6-3.6,13.4-6.8,20.4-9.5c6.8-2.6,14.4-5.4,21.8-5.3c15.6,0,31.4,1.6,47,2.8
				c14,1.1,28.1,2.3,42,4.2c6.1,0.9,20.3,1.3,22.3,8.7c2,7.7-1.2,18-7.8,22.6c-6.5,4.6-16,2-23.2,1c-9.1-1.2-18.6-3-27.7-2
				c-2.5,0.3-7.1,0.8-8.5,3.4c-1.1,2.1,0.7,4.8,1.9,6.6c3.3,4.9,10,4.8,15.4,5.3c9.8,0.9,19.6,1.3,29.3,2.2c4.5,0.4,9,0.9,13.5,1.7
				c1.9,0.4,3.8,0.7,5.5,1.7c1.8,1.1,2,2.4,2.2,4.6c0.6,5.7-0.6,16.4-6.5,19.4c-6.4,3.3-16.6,1.4-23.4,1.1c-8.5-0.4-17.5-1.3-26,0
				c-6.4,1-9.9,3.8-6.1,10c3.5,5.6,10,5,16,5c10.1,0.1,20.2-0.6,30.3,0.2c3.9,0.3,11.1,0.7,13.2,4.5c0.3,0.5,2.1,3.8,3,3.3
				c0.9-0.5-1.2-3.9-1.4-4.3c-1.8-3.3-4-6.5-7.3-8.4c-4.6-2.6-10.6-2.8-15.8-3c-10.1-0.4-20.2,0.4-30.2-0.1
				c-1.8-0.1-3.6-0.2-5.3-0.5c-2.8-0.5-3.8-2.3-1.4,2c2.4,4.3,1,2.3,3.4,0.6c1.3-0.9,2.9-1.3,4.3-1.6c9.1-1.9,19-0.7,28.1-0.3
				c6.7,0.3,16.6,2,22.8-1.1c5.8-3,7.1-13.1,6.9-18.8c-0.3-7.3-3.8-16.2-10.3-20.2c-3.6-2.2-8.5-2.5-12.6-3
				c-5.1-0.6-10.2-1-15.4-1.4c-9.3-0.7-18.8-0.8-27.9-2.4c-1.4-0.2-2.7-0.8-4.1-0.9c-0.3,0-1-0.6-1.2-0.5c0.5-0.2,2.4,5.9,3.1,5.9
				c0,0,0.2-0.6,0.3-0.6c1.1-0.4,2.1-1.6,3.3-2.1c1.9-0.7,3.9-1,5.9-1.1c10.2-0.8,20.7,1.4,30.8,2.7c7.5,0.9,15.8,2.4,21.6-3.7
				c11.1-11.7,6.5-35.8-9.2-41.3c-9.7-3.4-20.8-3.9-30.9-4.9c-16.3-1.7-32.6-2.9-49-3.9c-8-0.5-16-0.9-24-1.2
				c-6.9-0.3-13.6,1.9-20.1,4.1c-14.5,5.1-28.1,12.7-41,21c-6.3,4-12.4,8.2-18.5,12.5c-4.6,3.2-9.7,6-13,10.7
				c-6.4,9.4-9.4,21.3-12.6,32.1c-2.2,7.7-4.3,15.4-6.5,23C62.7,380.9,67.9,386.4,68,385.9L68,385.9z"/>
		</g>
	</g>
</g>
<g id="Слой_5">
	<path class="st7" d="M389.5,453.7H-55.2c-4.4,0-7.9-3.6-7.9-7.9v-51.5c0-4.4,3.6-7.9,7.9-7.9h444.7c4.4,0,7.9,3.6,7.9,7.9v51.5
		C397.4,450.1,393.9,453.7,389.5,453.7z"/>
</g>
<g id="Слой_1" class="st1">
	
		<image style="overflow:visible;" width="436" height="116" xlink:href="F2B3F766.jpg"  transform="matrix(0 -1 -1 0 1013.7902 -16.477)">
	</image>
	
		<image style="overflow:visible;" width="600" height="600" xlink:href="F2B3F765.jpg"  transform="matrix(1 0 0 1 -985.6667 -358)">
	</image>
	
		<image style="overflow:visible;" width="632" height="442" xlink:href="F2B3F76C.jpg"  transform="matrix(1.2851 0 0 1.2851 -1179.6045 245)">
	</image>
	
		<image style="overflow:visible;" width="800" height="850" xlink:href="F2B3F76D.jpg"  transform="matrix(-0.8968 0.2281 0.2281 0.8968 344.9016 -327.2789)">
	</image>
	
		<image style="overflow:visible;" width="1177" height="500" xlink:href="F2B3F760.png"  transform="matrix(0.5964 0 0 0.5964 -145.6667 -274)">
	</image>
	
		<image style="overflow:visible;opacity:0.5;" width="400" height="354" xlink:href="F2B3F76E.jpg"  transform="matrix(2.1897 0 0 2.1897 -229.6667 67.8467)">
	</image>
	
		<image style="display:inline;overflow:visible;opacity:0.6;" width="800" height="583" xlink:href="F2B3F764.jpg"  transform="matrix(0.7475 -0.1931 0.1931 0.7475 -292.6692 193.661)">
	</image>
</g>
<g id="Слой_4" class="st1">
	<g class="st6">
		<path d="M-209.6-482.9c24.7-1.5,49.5-2.2,74.2-2.8c12.4-0.3,24.7-0.5,37.1-0.6c12.4-0.2,24.7-0.2,37.1-0.3l37.1,0.1l18.6,0.2
			l9.3,0.1l9.3,0.2c24.7,0.5,49.5,1.2,74.2,2.6v1.7c-24.7,1.4-49.5,2.1-74.2,2.6L3.8-479l-9.3,0.1l-18.6,0.2l-37.1,0.1
			c-12.4-0.1-24.7-0.1-37.1-0.3c-12.4-0.2-24.7-0.3-37.1-0.6c-24.7-0.6-49.5-1.3-74.2-2.8V-482.9z"/>
	</g>
</g>
</svg>
